<?xml version="1.0" encoding="UTF-8"?>
<svg id="Layer_2" data-name="Layer 2" xmlns="http://www.w3.org/2000/svg" viewBox="0 0 74 74">
  <defs>
    <style>
      .cls-1 {
        fill: #ee2a7b;
      }

      .cls-1, .cls-2, .cls-3, .cls-4, .cls-5, .cls-6 {
        stroke-width: 0px;
      }

      .cls-2 {
        fill: #f7941d;
      }

      .cls-3 {
        fill: #1b5d48;
      }

      .cls-4 {
        fill: #ef4136;
      }

      .cls-5 {
        fill: #9e1f63;
      }

      .cls-6 {
        fill: #fff;
      }
    </style>
  </defs>
  <g id="Layer_1-2" data-name="Layer 1">
    <rect class="cls-6" width="74" height="74" rx="13.29" ry="13.29"/>
    <g>
      <path class="cls-1" d="M4.97,17.98c.08.02.11.08.15.13,1.22,1.68,2.54,3.28,3.92,4.84,1.67,1.87,3.42,3.67,5.27,5.36,1.7,1.56,3.47,3.05,5.32,4.43,2.57,1.92,5.26,3.64,8.13,5.08,3.35,1.69,6.84,2.97,10.52,3.7.72.14,1.45.27,2.18.36.3.04.31.07.14.32-1.86,2.62-3.82,5.15-5.93,7.58-3,3.45-6.21,6.67-9.85,9.44-.55.42-1.12.82-1.7,1.19-.2.13-.35.13-.56,0-1.91-1.24-3.72-2.61-5.42-4.13-2.34-2.11-4.39-4.47-6.14-7.1-2.88-4.34-4.76-9.09-5.79-14.19-.41-2.03-.67-4.07-.82-6.14-.12-1.76-.13-3.52-.08-5.28.06-1.76.23-3.51.53-5.25.02-.12,0-.27.12-.36Z"/>
      <path class="cls-4" d="M69.69,30.21c.02.57.04,1.07-.01,1.57-.52,4.54-2.39,8.49-5.34,11.95-2.1,2.47-4.63,4.39-7.47,5.94-.66.36-.66.35-1.19-.18-1.3-1.3-2.36-2.8-3.37-4.33-1.16-1.76-2.2-3.6-3.15-5.49-.17-.34-.16-.34.21-.37,3.71-.25,7.24-1.2,10.64-2.67,2.69-1.17,5.23-2.6,7.57-4.37.57-.43,1.11-.89,1.61-1.4.17-.18.32-.38.52-.64Z"/>
      <path class="cls-3" d="M48.53,58.45c-3.46-.03-6.64-.59-9.77-1.52-1.24-.37-2.46-.79-3.66-1.29-.29-.12-.29-.14-.04-.33,1.96-1.52,3.72-3.25,5.39-5.07,2.14-2.33,4.09-4.82,5.91-7.41.15-.21.18-.2.31.07,1.04,2.12,2.17,4.2,3.41,6.21,1.37,2.22,2.82,4.38,4.51,6.38.41.48.82.95,1.32,1.34.16.13.17.2-.04.28-1.43.57-2.9.93-4.42,1.14-1.03.14-2.07.18-2.92.21Z"/>
      <path class="cls-5" d="M50.57,35.17c-2.02,0-3.96-.36-5.8-1.24-.44-.21-.86-.45-1.27-.72-.2-.12-.16-.2,0-.33,1.58-1.3,3.16-2.61,4.74-3.91.56-.46,1.13-.92,1.68-1.39.17-.14.27-.15.4.04,1.64,2.23,3.28,4.45,4.93,6.68.12.16.11.23-.09.29-.99.27-2,.43-3.02.52-.52.05-1.04.06-1.56.06Z"/>
      <path class="cls-2" d="M57.13,16.71c0,1.78-1.44,3.24-3.21,3.24-1.8,0-3.24-1.43-3.24-3.24,0-1.77,1.45-3.23,3.22-3.24,1.75-.01,3.23,1.46,3.23,3.23Z"/>
    </g>
  </g>
</svg>